# Blender v2.71 (sub 0) OBJ File: ''
# www.blender.org
mtllib IcoSphere.mtl
o Icosphere
v 0.000000 -1.000000 0.000000
v 0.723600 -0.447215 0.525720
v -0.276385 -0.447215 0.850640
v -0.894425 -0.447215 0.000000
v -0.276385 -0.447215 -0.850640
v 0.723600 -0.447215 -0.525720
v 0.276385 0.447215 0.850640
v -0.723600 0.447215 0.525720
v -0.723600 0.447215 -0.525720
v 0.276385 0.447215 -0.850640
v 0.894425 0.447215 0.000000
v 0.000000 1.000000 0.000000
vt 0.000000 1.000000 0.000000
vn 0.187600 -0.794700 0.577400
vn 0.607100 -0.794700 0.000000
vn -0.491100 -0.794700 0.356800
vn -0.491100 -0.794700 -0.356800
vn 0.187600 -0.794700 -0.577400
vn 0.982200 -0.187600 0.000000
vn 0.303500 -0.187600 0.934200
vn -0.794600 -0.187600 0.577400
vn -0.794600 -0.187600 -0.577400
vn 0.303500 -0.187600 -0.934200
vn 0.794600 0.187600 0.577400
vn -0.303500 0.187600 0.934200
vn -0.982200 0.187600 0.000000
vn -0.303500 0.187600 -0.934200
vn 0.794600 0.187600 -0.577400
vn 0.491100 0.794700 0.356800
vn -0.187600 0.794700 0.577400
vn -0.607100 0.794700 0.000000
vn -0.187600 0.794700 -0.577400
vn 0.491100 0.794700 -0.356800
usemtl None
s off
f 1/1/1 2/0/1 3/0/1
f 2/1/2 1/0/2 6/0/2
f 1/1/3 3/0/3 4/0/3
f 1/1/4 4/0/4 5/0/4
f 1/1/5 5/0/5 6/0/5
f 2/1/6 6/0/6 11/0/6
f 3/1/7 2/0/7 7/0/7
f 4/1/8 3/0/8 8/0/8
f 5/1/9 4/0/9 9/0/9
f 6/1/10 5/0/10 10/0/10
f 2/1/11 11/0/11 7/0/11
f 3/1/12 7/0/12 8/0/12
f 4/1/13 8/0/13 9/0/13
f 5/1/14 9/0/14 10/0/14
f 6/1/15 10/0/15 11/0/15
f 7/1/16 11/0/16 12/0/16
f 8/1/17 7/0/17 12/0/17
f 9/1/18 8/0/18 12/0/18
f 10/1/19 9/0/19 12/0/19
f 11/1/20 10/0/20 12/0/20
